<svg width="33" height="23" viewBox="0 0 33 23" xmlns="http://www.w3.org/2000/svg"><title>Shape</title><desc>Created with Sketch.</desc><g fill="#fff" fill-rule="evenodd"><g><path d="M21.355 12.265l11.588 9.52c-.17.572-.702.993-1.33.993H1.694c-.626 0-1.158-.42-1.328-.994l11.588-9.52 3.32 2.728c.397.325.892.473 1.38.474.49 0 .985-.15 1.382-.474l3.32-2.727zM33 20.565V2.7l-10.875 8.933L33 20.566zM.307 2.7v17.866l10.875-8.934L.307 2.7zM31.614.486H1.694c-.627 0-1.16.42-1.33.994l.714.586 14.815 12.17c.192.16.473.252.76.252.29 0 .57-.093.762-.252L32.23 2.066l.713-.585c-.17-.572-.702-.993-1.33-.993z"/></g></g></svg>