<svg width="33" height="23" viewBox="0 0 33 23" xmlns="http://www.w3.org/2000/svg"><title>Shape</title><path d="M21.355 12.265l11.588 9.519c-.17.573-.702.994-1.329.994H1.694a1.39 1.39 0 0 1-1.329-.994l11.588-9.52 3.32 2.728a2.18 2.18 0 0 0 1.38.474c.49 0 .985-.15 1.382-.474l3.32-2.727zM33 20.566V2.699l-10.875 8.934L33 20.566zM.307 2.699v17.867l10.875-8.934L.307 2.7zM31.614.487H1.694a1.39 1.39 0 0 0-1.329.994l.713.585 14.815 12.17c.192.16.473.252.761.252.288 0 .57-.093.76-.252l14.817-12.17.712-.585a1.392 1.392 0 0 0-1.329-.994z" fill="#FFF" fill-rule="evenodd"/></svg>