<svg width="35" height="29" viewBox="0 0 35 29" xmlns="http://www.w3.org/2000/svg"><title>noun_12584</title><g fill="#FFF" fill-rule="evenodd"><path d="M32.204 5.09H1.942C.87 5.09 0 5.957 0 7.03v19.888c0 1.07.87 1.94 1.942 1.94h30.262c1.073 0 1.942-.87 1.942-1.94V7.03c0-1.072-.87-1.94-1.942-1.94zm-9.177 14.006l-5.267 5.262c-.38.38-.994.38-1.374 0l-5.267-5.262c-.19-.19-.285-.438-.285-.686h2.757v-8.178c0-.537.435-.97.97-.97h5.02c.537 0 .972.433.972.97v8.178h2.757c0 .248-.094.496-.283.686zM28.262.362c2.94 0 4.024 3.883 4.024 3.883H15.52S16.6.362 19.542.362"/></g></svg>