<svg width="35" height="29" viewBox="0 0 35 29" xmlns="http://www.w3.org/2000/svg"><title>noun_12584</title><g fill="#FFF" fill-rule="evenodd"><path d="M32.204 5.09H1.942A1.941 1.941 0 0 0 0 7.03v19.888c0 1.071.87 1.94 1.942 1.94h30.262a1.942 1.942 0 0 0 1.942-1.94V7.03c0-1.072-.87-1.94-1.942-1.94zm-9.177 14.006l-5.267 5.262a.971.971 0 0 1-1.374 0l-5.267-5.262a.968.968 0 0 1-.284-.686h2.757v-8.178c0-.537.435-.971.971-.971h5.02a.97.97 0 0 1 .971.97v8.179h2.757a.967.967 0 0 1-.284.686zM28.262.362c2.94 0 4.024 3.883 4.024 3.883H15.519S16.602.362 19.543.362"/></g></svg>