<svg width="34" height="34" viewBox="0 0 34 34" xmlns="http://www.w3.org/2000/svg"><title>Your_Icon 2</title><g fill="#FFF" fill-rule="evenodd"><path d="M24.869 16.567a7.87 7.87 0 0 1-15.737 0c0-.983.188-1.92.517-2.788H0V25.5A8.5 8.5 0 0 0 8.5 34h17c4.695 0 8.5-3.805 8.5-8.5V13.78h-9.65c.33.868.519 1.805.519 2.788z"/><circle cx="17" cy="16.567" r="4.722"/><path d="M25.5 0H8.948v8.864H7.089V.127A8.41 8.41 0 0 0 5.23.654v8.21H3.372v-7.13A8.476 8.476 0 0 0 0 8.5v2.489h11.45A7.845 7.845 0 0 1 17 8.699c2.165 0 4.126.875 5.549 2.29H34V8.502a8.5 8.5 0 0 0-8.5-8.5zm3.798 8.04a.957.957 0 0 1-.956.955h-2.865a.955.955 0 0 1-.956-.956V5.173c0-.527.427-.956.956-.956h2.865c.527 0 .956.428.956.956V8.04z"/></g></svg>