<svg width="34" height="34" viewBox="0 0 34 34" xmlns="http://www.w3.org/2000/svg"><title>Your_Icon 2</title><desc>Created with Sketch.</desc><g fill="none" fill-rule="evenodd"><g fill="#fff"><g><g><g><g transform="translate(0 0)"><path d="M24.87 16.567c0 4.345-3.524 7.87-7.87 7.87s-7.868-3.524-7.868-7.87c0-.983.188-1.92.517-2.788H0V25.5C0 30.195 3.806 34 8.5 34h17c4.695 0 8.5-3.805 8.5-8.5V13.78h-9.65c.33.867.52 1.804.52 2.787z" id="Shape"/><circle cx="17" cy="16.567" r="4.722"/><path d="M25.5 0H8.948v8.864h-1.86V.127C6.443.235 5.82.41 5.23.654v8.21H3.372v-7.13C1.326 3.283 0 5.733 0 8.5v2.49h11.45C12.875 9.574 14.836 8.7 17 8.7s4.126.874 5.55 2.29H34V8.5C34 3.808 30.195 0 25.5 0zm3.798 8.04c0 .526-.43.955-.956.955h-2.865c-.53 0-.956-.428-.956-.956V5.172c0-.527.428-.956.957-.956h2.865c.527 0 .956.428.956.956V8.04z"/></g></g></g></g></g></g></svg>