<?xml version="1.0" encoding="UTF-8" standalone="no"?>
<svg width="33px" height="23px" viewBox="0 0 33 23" version="1.1" xmlns="http://www.w3.org/2000/svg" xmlns:xlink="http://www.w3.org/1999/xlink" xmlns:sketch="http://www.bohemiancoding.com/sketch/ns">
    <!-- Generator: Sketch 3.2.2 (9983) - http://www.bohemiancoding.com/sketch -->
    <title>Shape</title>
    <desc>Created with Sketch.</desc>
    <defs></defs>
    <g id="Page-1" stroke="none" stroke-width="1" fill="#FFFFFF" fill-rule="evenodd" sketch:type="MSPage">
        <g id="Rectangle-2-+-Podziel-się-+-social-facebook-6" sketch:type="MSLayerGroup" transform="translate(-15.000000, -21.000000)" fill="#FFFFFF">
            <path d="M36.3545802,33.2652833 L47.9427587,42.7837969 C47.7725314,43.3565838 47.2405242,43.7778496 46.6142373,43.7778496 L16.6931368,43.7778496 C16.0668499,43.7778496 15.5348427,43.3565838 15.3649895,42.7837969 L26.9527939,33.2649092 L30.2724139,35.9915394 C30.6701098,36.3166549 31.1654526,36.465183 31.6536871,36.4663053 C32.1422956,36.465183 32.6376384,36.3166549 33.0345861,35.9919136 L36.3545802,33.2652833 L36.3545802,33.2652833 Z M48,41.5660168 L48,23.6992558 L37.1249056,32.6326363 L48,41.5660168 L48,41.5660168 Z M15.307,23.6992558 L15.307,41.5656426 L26.1820944,32.6322621 L15.307,23.6992558 L15.307,23.6992558 Z M46.6142373,21.4870488 L16.6931368,21.4870488 C16.067224,21.4870488 15.5352169,21.9079405 15.3649895,22.4807274 L16.0780737,23.0662346 L30.893463,35.2358049 C31.0850156,35.3951826 31.3663583,35.48834 31.6540612,35.4875917 C31.9417641,35.48834 32.2231068,35.3951826 32.4146593,35.2358049 L47.230797,23.0662346 L47.9431328,22.4811015 C47.7725314,21.9083146 47.2405242,21.4870488 46.6142373,21.4870488 L46.6142373,21.4870488 Z" id="Shape" sketch:type="MSShapeGroup"></path>
        </g>
    </g>
</svg>
