<?xml version="1.0" encoding="UTF-8" standalone="no"?>
<svg width="35px" height="29px" viewBox="0 0 35 29" version="1.1" xmlns="http://www.w3.org/2000/svg" xmlns:xlink="http://www.w3.org/1999/xlink" xmlns:sketch="http://www.bohemiancoding.com/sketch/ns">
    <!-- Generator: Sketch 3.2.2 (9983) - http://www.bohemiancoding.com/sketch -->
    <title>noun_12584</title>
    <desc>Created with Sketch.</desc>
    <defs></defs>
    <g id="Page-1" stroke="none" stroke-width="1" fill="none" fill-rule="evenodd" sketch:type="MSPage">
        <g id="media" sketch:type="MSLayerGroup" transform="translate(-183.000000, -158.000000)" fill="#FFFFFF">
            <g id="Rectangle-2-+-Podziel-się-+-social-facebook-4" transform="translate(169.000000, 141.000000)" sketch:type="MSShapeGroup">
                <g id="noun_12584" transform="translate(14.000000, 17.000000)">
                    <path d="M32.204439,5.08932941 L1.94190244,5.08932941 C0.869365854,5.08932941 0,5.95796471 0,7.0296 L0,26.9178 C0,27.9894353 0.869365854,28.8584118 1.94190244,28.8584118 L32.2040976,28.8584118 C33.2766341,28.8584118 34.1463415,27.9894353 34.1463415,26.9178 L34.1463415,7.0296 C34.1463415,5.95796471 33.2766341,5.08932941 32.204439,5.08932941 L32.204439,5.08932941 Z M23.0265854,19.0959882 L17.7598537,24.3579529 C17.3808293,24.737 16.7655122,24.737 16.3864878,24.3579529 L11.1194146,19.0959882 C10.9299024,18.9062941 10.8349756,18.6579176 10.8349756,18.4095412 L13.5916098,18.4095412 L13.5916098,10.2315412 C13.5916098,9.69521176 14.0266341,9.26089412 14.5634146,9.26089412 L19.5829268,9.26089412 C20.1190244,9.26089412 20.5540488,9.69521176 20.5540488,10.2315412 L20.5540488,18.4095412 L23.3110244,18.4095412 C23.3113659,18.6579176 23.2160976,18.9062941 23.0265854,19.0959882 L23.0265854,19.0959882 Z" id="Shape"></path>
                    <path d="M28.2619024,0.361988235 C31.2025854,0.361988235 32.2860488,4.24457647 32.2860488,4.24457647 L15.5188293,4.24457647 C15.5188293,4.24457647 16.6022927,0.361988235 19.5426341,0.361988235" id="Shape"></path>
                </g>
            </g>
        </g>
    </g>
</svg>