<?xml version="1.0" encoding="UTF-8" standalone="no"?>
<svg width="34px" height="34px" viewBox="0 0 34 34" version="1.1" xmlns="http://www.w3.org/2000/svg" xmlns:xlink="http://www.w3.org/1999/xlink" xmlns:sketch="http://www.bohemiancoding.com/sketch/ns">
    <!-- Generator: Sketch 3.2.2 (9983) - http://www.bohemiancoding.com/sketch -->
    <title>Your_Icon 2</title>
    <desc>Created with Sketch.</desc>
    <defs></defs>
    <g id="Page-1" stroke="none" stroke-width="1" fill="none" fill-rule="evenodd" sketch:type="MSPage">
        <g id="stopka" sketch:type="MSLayerGroup" transform="translate(-513.000000, -17.000000)" fill="#FFFFFF">
            <g id="Rectangle-2-+-Podziel-się-+-social-facebook-2" transform="translate(499.000000, 1.000000)" sketch:type="MSShapeGroup">
                <g id="Your_Icon-2" transform="translate(14.000000, 16.000000)">
                    <g id="Instagram_Icon">
                        <g id="Group">
                            <path d="M24.86896,16.56718 C24.86896,20.91238 21.34588,24.43614 17,24.43614 C12.65446,24.43614 9.13206,20.91272 9.13206,16.56718 C9.13206,15.58356 9.32042,14.6472 9.6492,13.77884 L0,13.77884 L0,25.50034 C0,30.1954 3.80596,34 8.5,34 L25.50034,34 C30.19472,34 34,30.1954 34,25.50034 L34,13.77884 L24.35046,13.77884 C24.67992,14.64686 24.86896,15.58356 24.86896,16.56718 L24.86896,16.56718 Z" id="Shape"></path>
                            <circle id="Oval" cx="17" cy="16.56684" r="4.72226"></circle>
                            <path d="M25.50034,0.000679999999 L8.94778,0.000679999999 L8.94778,8.86414 L7.089,8.86414 L7.089,0.1275 C6.44232,0.23494 5.81842,0.40936 5.23022,0.6545 L5.23022,8.86448 L3.37178,8.86448 L3.37178,1.73332 C1.326,3.28542 0,5.73546 0,8.50102 L0,10.98982 L11.45052,10.98982 C12.87376,9.5744 14.83454,8.6989 17,8.6989 C19.16546,8.6989 21.1259,9.5744 22.5488,10.98982 L34,10.98982 L34,8.50102 C34,3.80664 30.19472,0.000679999999 25.50034,0.000679999999 L25.50034,0.000679999999 Z M29.2978,8.0393 C29.2978,8.56596 28.8694,8.9947 28.34206,8.9947 L25.47654,8.9947 C24.94818,8.9947 24.5208,8.56732 24.5208,8.0393 L24.5208,5.1731 C24.5208,4.64576 24.94818,4.21736 25.47654,4.21736 L28.34206,4.21736 C28.8694,4.21736 29.2978,4.64474 29.2978,5.1731 L29.2978,8.0393 L29.2978,8.0393 Z" id="Shape"></path>
                        </g>
                    </g>
                </g>
            </g>
        </g>
    </g>
</svg>