<?xml version="1.0" encoding="utf-8"?>
<!-- Generator: Adobe Illustrator 18.0.0, SVG Export Plug-In . SVG Version: 6.00 Build 0)  -->
<!DOCTYPE svg PUBLIC "-//W3C//DTD SVG 1.1//EN" "http://www.w3.org/Graphics/SVG/1.1/DTD/svg11.dtd">
<svg version="1.1" id="Warstwa_1" xmlns="http://www.w3.org/2000/svg" xmlns:xlink="http://www.w3.org/1999/xlink" x="0px" y="0px"
	 viewBox="0 0 354.8 168.9" enable-background="new 0 0 354.8 168.9" xml:space="preserve">
<path fill-rule="evenodd" clip-rule="evenodd" fill="#004990" d="M142.2,92.6c1.8,0.6,4.5,0.7,6.5,0.7c2.8,0,7.3-0.4,9-3
	c1.6-2.5,0.6-18.3,0.7-22.3c0.1-2.4,4.1-2,5.8-1.8c1.3,0.1,1.6,0.8,1.6,2c-0.2,4.2-0.4,8.3-0.4,12.5c0,10.1-0.1,15.9-11.8,18.2
	c-7.1,1.4-25.5,1.4-27.2-8.1c-0.4-2.3-0.6-19.9-0.4-23c0.1-1.1,0.5-1.6,1.6-1.7c2.2-0.1,7.2-0.1,9.3,0c1.3,0.1,1.6,0.8,1.6,2
	c0,4.4-0.8,16.8-0.3,20.3c0.2,0.9,0.4,1.8,1.1,2.6C140,91.8,141.1,92.3,142.2,92.6z"/>
<path fill-rule="evenodd" clip-rule="evenodd" fill="#004990" d="M223,78.3l0.5,19.1c0,0.5-0.1,0.9-0.5,1.1
	c-0.3,0.2-0.8,0.2-1.1,0.2l-0.7,0c-1.3,0-2,0-3,0l-0.7,0c-0.3,0-0.8,0-1.1-0.2c-0.5-0.3-0.6-0.7-0.5-1.2l0-0.3
	c0.2-1.3,0.5-9.4,0.5-11.3V68.4l0-0.2c0-0.2,0-0.4,0-0.6c0-0.2,0.1-0.5,0.2-0.8c0.2-0.3,0.5-0.5,1-0.5l0.8,0c2.4,0.1,4.1,0,4.1,0
	l2.8-0.1c0.2,0,0.8,0.2,1,0.3l0.4,0.3c2.1,1.9,7.5,6.4,12.5,10.6c2.5,2.1,5,4.1,6.9,5.7c1.9,1.6,3.3,2.8,3.7,3.2
	c0.7,0.7,0.8,0.2,0.8,0.2c0-7.6-0.1-17.6-0.2-18.4l0-0.3c-0.1-1.2,0.7-1.5,1.5-1.5l0.7,0c0.7,0,1.7,0,2.8,0l0.7,0
	c0.3,0,0.7,0,1.1,0.2c0.5,0.3,0.6,0.7,0.5,1.2c0,0.7-0.5,11.8-0.5,13c0,8.7-0.1,13.9,0.1,16.2l0,0.4c0.1,1.1-0.8,1.5-1.5,1.5l-0.7,0
	c-1.1,0-3.1,0-4.4-0.1l-0.3,0c-0.2,0-0.7-0.2-0.9-0.3c-5.8-4.6-14.6-10.8-24.2-19c-0.7-0.6-1.4-0.9-1.9-1.1
	C223.1,78.3,223,78.3,223,78.3z"/>
<path fill="#004990" d="M9.8,98.8l-3.1,0c-0.5,0-1.2-0.1-1.6-0.4c-0.6-0.5-0.5-1.1-0.1-1.7l15.5-25.1l2.7-4.8c0.2-0.4,1-0.8,1.5-0.8
	l4.6,0c0.5,0,1.2,0.4,1.4,0.8l19.8,30.1c0.4,0.6,0.4,1.3-0.3,1.7c-0.4,0.2-1.1,0.3-1.6,0.3l-6.3-0.1l-5,0.1c-0.5,0-1.2-0.4-1.5-0.8
	c-0.1-0.3-0.4-0.7-0.8-1.4c-0.5-0.8-10-17.6-10-17.6c-0.4-0.7-1.2-0.8-1.7,0.1L13.2,97.6c-0.3,0.7-0.7,1.2-1.6,1.2L9.8,98.8z"/>
<path fill="#004990" d="M350.2,66.3c0.2,0.2,0.4,0.6,0.3,1l-0.6,3c-0.1,0.6-0.4,1.2-1.4,1.1c-5.8-0.6-8.8-0.7-12.3-0.6
	c-0.9,0-1.2,0.5-1.2,0.6c0,1,0,2.3,0,3.9c0,0,0.1,15.5,0.2,20.5c0,0.7,0,1.1,0.1,1.3c0,0,0,0.1,0,0.3c0,0.1,0,0.3-0.1,0.5
	c-0.2,0.4-0.6,0.8-1.3,0.8l-0.8,0c-1.1,0-1.7,0-3.9,0c-2.5,0-2.6,0-3.9,0l-0.9,0c-0.7,0-1.1-0.4-1.3-0.8c-0.1-0.2-0.1-0.4-0.1-0.5
	c0-0.2,0-0.3,0-0.3c0-0.2,0-0.6,0.1-1.3c0.1-5,0.1-20.5,0.1-20.5c0-1.7,0-3,0-3.9c0,0-0.3-0.6-1.2-0.6c-3.5-0.1-6.5,0-12.3,0.6
	c-1,0.1-1.3-0.5-1.4-1.1l-0.6-3c0-0.5,0.1-0.8,0.3-1.1c0.1-0.1,0.2-0.2,0.3-0.2l0.3-0.1c0.9,0,40.2,0,40.9,0c0.2,0,0.3,0,0.4,0.1
	C350,66.2,350.1,66.2,350.2,66.3z"/>
<path fill="#004990" d="M278.5,82.6l-0.8-1.9c-0.7-1.4,0-1.8,1.1-1.7c4.3,0.2,10.9,0.1,17.4,0c0.7,0,1.1-0.5,1-1.3
	c-0.9-4.8-4.8-8.5-11-8.5c-6.5,0-12.3,4.2-12.5,12.1c-0.2,8.4,4.4,13.5,12.6,14c3.5,0.2,6.6-0.7,9-1.7c1.2-0.5,3.2-1.7,3.5-1.9
	c1-0.5,1.3-0.7,4.8,0.4c0.7,0.2,1.3,0.5,1.7,0.8c0.4,0.3,0.9,1.1,0.1,1.8c-11.1,8.6-43,7.7-42.6-12.5c0.3-13.7,13.1-17.5,23.7-17.4
	c9.4,0.1,21.5,4.6,22.4,15.4c0,2.4-0.6,3.2-1.9,3.2c-5.7,0-26,0-26.7,0.1C280.2,83.6,278.9,83.6,278.5,82.6z"/>
<path fill="#00AEEF" d="M51,81.3c0.1-3.8,1-7.2,2.7-10.1c1.8-2.9,4.2-5.3,7.4-7.3c3.1-2,6.5-3.4,10-4.3c4.7-1.1,10.1-1.7,16-1.6
	c5.6,0.1,10.4,0.6,14.4,1.7c4,1,7.4,2.5,10.2,4.4c2.8,1.9,4.8,3.9,6.2,6.1c1.9,2.9,2.7,6.4,2.6,10.4c-0.2,7.6-3.5,13.7-10,18
	c-1.4,0.9-2.5,1.6-3.1,2.3c-0.8,0.9-1,1.8-0.7,2.9c0.7,1.2,1.9,1.7,3,2.1c1.1,0.4,2.5,0.8,4,1.4c3,1,5.8,2.4,7.2,4.4
	c2.6,3.9,2,9-1.1,11.3c-5.4,4.1-13.4,0.6-15-4.5c-0.8-2.5-1.2-4.5-1.7-6.2c-0.4-1.7-0.9-3.2-1.5-4.4c-1.5-2.7-3.9-3.5-8.4-3.4
	c-2.9,0.3-5.8,0.5-8.9,0.4c-5.6-0.1-10.4-0.7-14.5-1.8c-4.1-1.1-7.4-2.6-10-4.5c-2.6-1.8-4.5-3.8-5.8-6C51.8,89.3,50.9,85.5,51,81.3
	z M70.6,94.7c3.4,3.5,8.5,5.3,15.4,5.4c3.7,0,7-0.5,10-1.6c2.9-1.1,5.3-3,7.1-5.8c1.8-2.8,2.8-6.3,2.9-10.4c0.1-2.6-0.3-5.1-1-7.5
	c-0.7-2.4-1.9-4.5-3.5-6.3c-1.6-1.8-3.6-3.1-6-4.1c-2.3-0.9-5.5-1.4-9.5-1.5c-3.6,0-6.8,0.4-9.5,1.2c-2,0.6-3.8,1.6-5.5,2.9
	c-1.6,1.3-2.9,3.1-3.9,5.3c-0.9,2.2-1.5,4.7-1.5,7.6C65.3,86.2,67.1,91.1,70.6,94.7z"/>
<path fill="#004990" d="M171.3,98.8l-3.1,0c-0.5,0-1.2-0.1-1.6-0.4c-0.6-0.5-0.5-1.1-0.1-1.7L182,71.6l2.7-4.8
	c0.2-0.4,1-0.8,1.5-0.8l4.6,0c0.5,0,1.2,0.4,1.4,0.8L212,96.9c0.4,0.6,0.4,1.3-0.3,1.7c-0.4,0.2-1.1,0.3-1.6,0.3l-6.3-0.1l-5,0.1
	c-0.5,0-1.2-0.4-1.5-0.8c-0.1-0.3-0.4-0.7-0.8-1.4c-0.5-0.8-10-17.6-10-17.6c-0.4-0.7-1.2-0.8-1.7,0.1l-10.2,18.4
	c-0.3,0.7-0.7,1.2-1.6,1.2L171.3,98.8z"/>
</svg>
